<svg id="Layer_1" data-name="Layer 1" xmlns="http://www.w3.org/2000/svg" viewBox="0 0 332.79 180.05"><defs><style>.cls-1{fill:#e0e0e0;}.cls-2{font-size:20px;fill:#c6c6c6;font-family:CoFoSans-Medium, CoFo Sans;letter-spacing:-0.02em;}.cls-3{letter-spacing:-0.03em;}.cls-4{letter-spacing:-0.02em;}.cls-5{letter-spacing:-0.03em;}</style></defs><title>bread_form</title><path class="cls-1" d="M333.48,71.76C332.74,82,327.13,88,319.14,91.39c-8.47,3.65-17.41,6.33-26.25,9-8.63,2.63-17.31,5.37-26.2,7-18.52,3.49-37.21,6.33-55.78,9.5-8.31,1.45-16.46,3.49-24.77,4.67a197,197,0,0,1-21.81,1.88c-18.84.7-37.63,2.31-56.36-2.31-10.27-2.52-21.12-2.36-31.44-4.61C56.85,112.26,36.63,109,18,101.91-3.59,93.7-5,69.72,14,56.09,22.4,50,31.45,44.34,41,40.53,55.16,35,70.13,30.93,84.79,26.37c9.05-2.79,18.15-5.58,27.36-7.89,8.15-2,16.41-3.49,24.66-4.83,11.33-1.88,22.71-3.76,34.08-5Q195,5.87,219.33,4c6-.48,9.21,2.68,9.26,8.69,0,4.4,2.43,5.31,5.71,6.22,22.33,6.06,44.83,11.48,66.84,18.56,10.27,3.27,21.54,7,26.78,18.35C330.25,60.92,331.63,66.44,333.48,71.76Zm-277.11-23C42.24,54.32,28.48,59.68,17.79,70.58c-11,11.16-9.47,17.28,5.5,22.1,25.24,8.1,51.39,11.75,77.43,15.88,11.33,1.82,22.81,4.19,34.08,3.76a525.89,525.89,0,0,0,86.37-9.87c8.15-1.66,16.78-1.18,24.87-3a418.13,418.13,0,0,0,41.18-10.68,187.19,187.19,0,0,0,30.43-12.88c7.83-4.13,7.83-10.09.37-15-6.62-4.4-14.13-7.51-21.49-11.27-6.4,8-12.17,15.29-18,22.59-4,5-11.86,8-16,6.28-5.19-2.2-8.68-8.75-8.1-15.88a21.83,21.83,0,0,1,1.54-6.55c2.06-5.26,4.34-10.41,6.56-15.72-2.54-.64-4.82-1.77-7.15-1.72A8.19,8.19,0,0,0,249.7,41a80.11,80.11,0,0,0-7.57,11.11c-5.35,9.17-12.86,16.2-21.49,22-7.51,5-16,.91-16.83-8.26A24.26,24.26,0,0,1,205.41,55c3.23-8.1,7.09-15.88,11-24.46-4.76-.59-9.21-.38-13-1.82-6.56-2.52-8.36,1.07-10.53,6.12-6.14,13.9-15.45,24.84-29.74,30.74C156,68.54,148,63.17,149,55.39a41.87,41.87,0,0,1,4.18-12.66c3.17-6.76,6.93-13.2,11.11-21.14-8.57,1.66-15.61,3.06-22.7,4.45-.21,1.61.05,3.49-.74,4.72-7.57,12-14.87,24.3-23.23,35.73-4.29,5.85-9.69,6.17-14.45,2.84C98,65.8,97.5,60.49,99.35,55.07c2.54-7.24,5.56-14.32,8.47-21.62-4.13-2-7.67-1.34-10.16,2.74C93.74,42.62,89.72,49,86.38,55.71c-5.5,11.21-12.6,20.92-22.86,28.06-4.71,3.33-9.79,5.85-15.08,2.09S44,76.69,45.95,71.38c.48-1.34,1-2.68,1.53-4C50.5,61.13,53.41,55,56.37,48.79ZM164.29,50c9.32-5.42,15.82-12.93,17.41-24C170.16,29.59,169,41.18,164.29,50Zm54.14,8.37,1.48.86c7.89-6.33,13.92-14.06,17.31-24.3-1.8-.8-3.39-1.56-5.61-2.58C227.11,41.28,222.77,49.87,218.43,58.4ZM81.19,40.64c-.79-.59-1.59-1.13-2.38-1.72-8.2,7.62-12.38,17.87-17.31,27.58.69.48,1.38.91,2.06,1.39Q72.3,54.21,81.19,40.64Zm202.43,4.94c-2.59,0-6.14-1-7,.16-4.13,5.42-7.52,11.37-11.22,17.17.48.27.9.54,1.38.86C272.09,58,277.38,52.23,283.63,45.57ZM129,29.85l-2-1.56c-5.35,6.22-8.89,13.63-11.54,21.73Q122.32,39.89,129,29.85Z" transform="translate(-0.7 -4)"/><text class="cls-2" transform="translate(63.34 170.93)">выбери<tspan class="cls-3" x="67.04" y="0">т</tspan><tspan class="cls-4" x="76.08" y="0">е ф</tspan><tspan class="cls-5" x="103.98" y="0">о</tspan><tspan class="cls-3" x="114.36" y="0">т</tspan><tspan class="cls-4" x="123.4" y="0">ографию</tspan></text></svg>